<mxfile host="app.diagrams.net" modified="2024-07-11T08:47:34.512Z" agent="Mozilla/5.0 (Windows NT 10.0; Win64; x64) AppleWebKit/537.36 (KHTML, like Gecko) Chrome/126.0.0.0 Safari/537.36" etag="t170dWHFOY4Yap4pUEad" version="24.6.4" type="device">
  <diagram name="Page-1" id="2YBvvXClWsGukQMizWep">
    <mxGraphModel dx="836" dy="478" grid="1" gridSize="10" guides="1" tooltips="1" connect="1" arrows="1" fold="1" page="1" pageScale="1" pageWidth="850" pageHeight="1100" math="0" shadow="0">
      <root>
        <mxCell id="0" />
        <mxCell id="1" parent="0" />
        <mxCell id="aM9ryv3xv72pqoxQDRHE-1" value="User" style="shape=umlLifeline;perimeter=lifelinePerimeter;whiteSpace=wrap;html=1;container=0;dropTarget=0;collapsible=0;recursiveResize=0;outlineConnect=0;portConstraint=eastwest;newEdgeStyle={&quot;edgeStyle&quot;:&quot;elbowEdgeStyle&quot;,&quot;elbow&quot;:&quot;vertical&quot;,&quot;curved&quot;:0,&quot;rounded&quot;:0};" parent="1" vertex="1">
          <mxGeometry x="40" y="40" width="100" height="1360" as="geometry" />
        </mxCell>
        <mxCell id="aM9ryv3xv72pqoxQDRHE-2" value="" style="html=1;points=[];perimeter=orthogonalPerimeter;outlineConnect=0;targetShapes=umlLifeline;portConstraint=eastwest;newEdgeStyle={&quot;edgeStyle&quot;:&quot;elbowEdgeStyle&quot;,&quot;elbow&quot;:&quot;vertical&quot;,&quot;curved&quot;:0,&quot;rounded&quot;:0};" parent="aM9ryv3xv72pqoxQDRHE-1" vertex="1">
          <mxGeometry x="45" y="70" width="10" height="50" as="geometry" />
        </mxCell>
        <mxCell id="aM9ryv3xv72pqoxQDRHE-3" value="login" style="html=1;verticalAlign=bottom;startArrow=oval;endArrow=block;startSize=8;edgeStyle=elbowEdgeStyle;elbow=vertical;curved=0;rounded=0;" parent="aM9ryv3xv72pqoxQDRHE-1" target="aM9ryv3xv72pqoxQDRHE-2" edge="1">
          <mxGeometry relative="1" as="geometry">
            <mxPoint x="-15" y="70" as="sourcePoint" />
          </mxGeometry>
        </mxCell>
        <mxCell id="hkbijl6ttnB5Sjc4T6V5-68" value="" style="html=1;points=[];perimeter=orthogonalPerimeter;outlineConnect=0;targetShapes=umlLifeline;portConstraint=eastwest;newEdgeStyle={&quot;edgeStyle&quot;:&quot;elbowEdgeStyle&quot;,&quot;elbow&quot;:&quot;vertical&quot;,&quot;curved&quot;:0,&quot;rounded&quot;:0};" vertex="1" parent="aM9ryv3xv72pqoxQDRHE-1">
          <mxGeometry x="45" y="930" width="10" height="150" as="geometry" />
        </mxCell>
        <mxCell id="hkbijl6ttnB5Sjc4T6V5-163" value="&amp;nbsp;" style="html=1;points=[];perimeter=orthogonalPerimeter;outlineConnect=0;targetShapes=umlLifeline;portConstraint=eastwest;newEdgeStyle={&quot;edgeStyle&quot;:&quot;elbowEdgeStyle&quot;,&quot;elbow&quot;:&quot;vertical&quot;,&quot;curved&quot;:0,&quot;rounded&quot;:0};" vertex="1" parent="aM9ryv3xv72pqoxQDRHE-1">
          <mxGeometry x="45" y="1270" width="10" height="30" as="geometry" />
        </mxCell>
        <mxCell id="aM9ryv3xv72pqoxQDRHE-5" value="Authentication" style="shape=umlLifeline;perimeter=lifelinePerimeter;whiteSpace=wrap;html=1;container=0;dropTarget=0;collapsible=0;recursiveResize=0;outlineConnect=0;portConstraint=eastwest;newEdgeStyle={&quot;edgeStyle&quot;:&quot;elbowEdgeStyle&quot;,&quot;elbow&quot;:&quot;vertical&quot;,&quot;curved&quot;:0,&quot;rounded&quot;:0};" parent="1" vertex="1">
          <mxGeometry x="220" y="40" width="100" height="1360" as="geometry" />
        </mxCell>
        <mxCell id="aM9ryv3xv72pqoxQDRHE-6" value="" style="html=1;points=[];perimeter=orthogonalPerimeter;outlineConnect=0;targetShapes=umlLifeline;portConstraint=eastwest;newEdgeStyle={&quot;edgeStyle&quot;:&quot;elbowEdgeStyle&quot;,&quot;elbow&quot;:&quot;vertical&quot;,&quot;curved&quot;:0,&quot;rounded&quot;:0};" parent="aM9ryv3xv72pqoxQDRHE-5" vertex="1">
          <mxGeometry x="45" y="80" width="10" height="880" as="geometry" />
        </mxCell>
        <mxCell id="hkbijl6ttnB5Sjc4T6V5-88" value="" style="html=1;points=[];perimeter=orthogonalPerimeter;outlineConnect=0;targetShapes=umlLifeline;portConstraint=eastwest;newEdgeStyle={&quot;edgeStyle&quot;:&quot;elbowEdgeStyle&quot;,&quot;elbow&quot;:&quot;vertical&quot;,&quot;curved&quot;:0,&quot;rounded&quot;:0};" vertex="1" parent="aM9ryv3xv72pqoxQDRHE-5">
          <mxGeometry x="45" y="1200" width="10" height="90" as="geometry" />
        </mxCell>
        <mxCell id="hkbijl6ttnB5Sjc4T6V5-156" value="&amp;nbsp;" style="html=1;points=[];perimeter=orthogonalPerimeter;outlineConnect=0;targetShapes=umlLifeline;portConstraint=eastwest;newEdgeStyle={&quot;edgeStyle&quot;:&quot;elbowEdgeStyle&quot;,&quot;elbow&quot;:&quot;vertical&quot;,&quot;curved&quot;:0,&quot;rounded&quot;:0};" vertex="1" parent="aM9ryv3xv72pqoxQDRHE-5">
          <mxGeometry x="45" y="1050" width="10" height="80" as="geometry" />
        </mxCell>
        <mxCell id="hkbijl6ttnB5Sjc4T6V5-99" value="" style="html=1;points=[];perimeter=orthogonalPerimeter;outlineConnect=0;targetShapes=umlLifeline;portConstraint=eastwest;newEdgeStyle={&quot;edgeStyle&quot;:&quot;elbowEdgeStyle&quot;,&quot;elbow&quot;:&quot;vertical&quot;,&quot;curved&quot;:0,&quot;rounded&quot;:0};" vertex="1" parent="aM9ryv3xv72pqoxQDRHE-5">
          <mxGeometry x="-135" y="1110" width="10" height="150" as="geometry" />
        </mxCell>
        <mxCell id="hkbijl6ttnB5Sjc4T6V5-92" value="Employee Register" style="html=1;verticalAlign=bottom;endArrow=block;edgeStyle=elbowEdgeStyle;elbow=vertical;curved=0;rounded=0;entryX=0.5;entryY=0.053;entryDx=0;entryDy=0;entryPerimeter=0;" edge="1" parent="aM9ryv3xv72pqoxQDRHE-5">
          <mxGeometry x="-0.0029" relative="1" as="geometry">
            <mxPoint x="-125" y="1160.5" as="sourcePoint" />
            <Array as="points" />
            <mxPoint x="45" y="1160" as="targetPoint" />
            <mxPoint as="offset" />
          </mxGeometry>
        </mxCell>
        <mxCell id="hkbijl6ttnB5Sjc4T6V5-96" value="Invalid credentials" style="html=1;verticalAlign=bottom;endArrow=block;edgeStyle=elbowEdgeStyle;elbow=vertical;curved=0;rounded=0;" edge="1" parent="aM9ryv3xv72pqoxQDRHE-5">
          <mxGeometry relative="1" as="geometry">
            <mxPoint x="45" y="1229" as="sourcePoint" />
            <Array as="points">
              <mxPoint x="-45" y="1229" />
            </Array>
            <mxPoint x="-120" y="1229" as="targetPoint" />
          </mxGeometry>
        </mxCell>
        <mxCell id="hkbijl6ttnB5Sjc4T6V5-97" value="GET - Employee&amp;nbsp;Details by&amp;nbsp;&lt;br&gt;&lt;div&gt;Employee_id&lt;/div&gt;" style="html=1;verticalAlign=bottom;endArrow=block;edgeStyle=elbowEdgeStyle;elbow=vertical;curved=0;rounded=0;" edge="1" parent="aM9ryv3xv72pqoxQDRHE-5" target="hkbijl6ttnB5Sjc4T6V5-160">
          <mxGeometry relative="1" as="geometry">
            <mxPoint x="55" y="1240" as="sourcePoint" />
            <Array as="points">
              <mxPoint x="105" y="1240" />
              <mxPoint x="140" y="1250" />
            </Array>
            <mxPoint x="235" y="1240" as="targetPoint" />
          </mxGeometry>
        </mxCell>
        <mxCell id="hkbijl6ttnB5Sjc4T6V5-157" value="&amp;nbsp;" style="html=1;points=[];perimeter=orthogonalPerimeter;outlineConnect=0;targetShapes=umlLifeline;portConstraint=eastwest;newEdgeStyle={&quot;edgeStyle&quot;:&quot;elbowEdgeStyle&quot;,&quot;elbow&quot;:&quot;vertical&quot;,&quot;curved&quot;:0,&quot;rounded&quot;:0};" vertex="1" parent="aM9ryv3xv72pqoxQDRHE-5">
          <mxGeometry x="45" y="1150" width="10" height="40" as="geometry" />
        </mxCell>
        <mxCell id="hkbijl6ttnB5Sjc4T6V5-89" value="&amp;nbsp;" style="html=1;points=[];perimeter=orthogonalPerimeter;outlineConnect=0;targetShapes=umlLifeline;portConstraint=eastwest;newEdgeStyle={&quot;edgeStyle&quot;:&quot;elbowEdgeStyle&quot;,&quot;elbow&quot;:&quot;vertical&quot;,&quot;curved&quot;:0,&quot;rounded&quot;:0};" vertex="1" parent="aM9ryv3xv72pqoxQDRHE-5">
          <mxGeometry x="270" y="1150" width="10" height="40" as="geometry" />
        </mxCell>
        <mxCell id="hkbijl6ttnB5Sjc4T6V5-160" value="&amp;nbsp;" style="html=1;points=[];perimeter=orthogonalPerimeter;outlineConnect=0;targetShapes=umlLifeline;portConstraint=eastwest;newEdgeStyle={&quot;edgeStyle&quot;:&quot;elbowEdgeStyle&quot;,&quot;elbow&quot;:&quot;vertical&quot;,&quot;curved&quot;:0,&quot;rounded&quot;:0};" vertex="1" parent="aM9ryv3xv72pqoxQDRHE-5">
          <mxGeometry x="270" y="1230" width="10" height="30" as="geometry" />
        </mxCell>
        <mxCell id="hkbijl6ttnB5Sjc4T6V5-90" value="&amp;nbsp;" style="html=1;points=[];perimeter=orthogonalPerimeter;outlineConnect=0;targetShapes=umlLifeline;portConstraint=eastwest;newEdgeStyle={&quot;edgeStyle&quot;:&quot;elbowEdgeStyle&quot;,&quot;elbow&quot;:&quot;vertical&quot;,&quot;curved&quot;:0,&quot;rounded&quot;:0};" vertex="1" parent="aM9ryv3xv72pqoxQDRHE-5">
          <mxGeometry x="465" y="1150" width="10" height="40" as="geometry" />
        </mxCell>
        <mxCell id="hkbijl6ttnB5Sjc4T6V5-159" value="&amp;nbsp;" style="html=1;points=[];perimeter=orthogonalPerimeter;outlineConnect=0;targetShapes=umlLifeline;portConstraint=eastwest;newEdgeStyle={&quot;edgeStyle&quot;:&quot;elbowEdgeStyle&quot;,&quot;elbow&quot;:&quot;vertical&quot;,&quot;curved&quot;:0,&quot;rounded&quot;:0};" vertex="1" parent="aM9ryv3xv72pqoxQDRHE-5">
          <mxGeometry x="465" y="1230" width="10" height="30" as="geometry" />
        </mxCell>
        <mxCell id="hkbijl6ttnB5Sjc4T6V5-91" value="Logout" style="html=1;verticalAlign=bottom;endArrow=block;edgeStyle=elbowEdgeStyle;elbow=vertical;curved=0;rounded=0;" edge="1" parent="aM9ryv3xv72pqoxQDRHE-5" target="hkbijl6ttnB5Sjc4T6V5-99">
          <mxGeometry relative="1" as="geometry">
            <mxPoint x="45" y="1120" as="sourcePoint" />
            <Array as="points">
              <mxPoint x="-45" y="1120" />
            </Array>
            <mxPoint x="-115" y="1120" as="targetPoint" />
          </mxGeometry>
        </mxCell>
        <mxCell id="hkbijl6ttnB5Sjc4T6V5-95" value="Employee&amp;nbsp;userId and&amp;nbsp;&lt;div&gt;Password&lt;/div&gt;" style="html=1;verticalAlign=bottom;endArrow=block;edgeStyle=elbowEdgeStyle;elbow=vertical;curved=0;rounded=0;" edge="1" parent="aM9ryv3xv72pqoxQDRHE-5" source="hkbijl6ttnB5Sjc4T6V5-99">
          <mxGeometry relative="1" as="geometry">
            <mxPoint x="-120" y="1209" as="sourcePoint" />
            <Array as="points">
              <mxPoint x="-35" y="1209" />
            </Array>
            <mxPoint x="45" y="1209" as="targetPoint" />
          </mxGeometry>
        </mxCell>
        <mxCell id="hkbijl6ttnB5Sjc4T6V5-93" value="POST user_id, password&lt;div&gt;role&lt;/div&gt;" style="html=1;verticalAlign=bottom;endArrow=block;edgeStyle=elbowEdgeStyle;elbow=vertical;curved=0;rounded=0;" edge="1" parent="aM9ryv3xv72pqoxQDRHE-5" target="hkbijl6ttnB5Sjc4T6V5-89">
          <mxGeometry x="-0.0029" relative="1" as="geometry">
            <mxPoint x="55" y="1170.5" as="sourcePoint" />
            <Array as="points" />
            <mxPoint x="225" y="1170" as="targetPoint" />
            <mxPoint as="offset" />
          </mxGeometry>
        </mxCell>
        <mxCell id="hkbijl6ttnB5Sjc4T6V5-94" value="Employee&amp;nbsp;created successfully" style="html=1;verticalAlign=bottom;endArrow=block;edgeStyle=elbowEdgeStyle;elbow=vertical;curved=0;rounded=0;" edge="1" parent="aM9ryv3xv72pqoxQDRHE-5" target="hkbijl6ttnB5Sjc4T6V5-90">
          <mxGeometry x="-0.0029" relative="1" as="geometry">
            <mxPoint x="280" y="1180.5" as="sourcePoint" />
            <Array as="points" />
            <mxPoint x="450" y="1180" as="targetPoint" />
            <mxPoint as="offset" />
          </mxGeometry>
        </mxCell>
        <mxCell id="hkbijl6ttnB5Sjc4T6V5-98" value="Display Employee&amp;nbsp;details" style="html=1;verticalAlign=bottom;endArrow=block;edgeStyle=elbowEdgeStyle;elbow=vertical;curved=0;rounded=0;" edge="1" parent="aM9ryv3xv72pqoxQDRHE-5" target="hkbijl6ttnB5Sjc4T6V5-159">
          <mxGeometry relative="1" as="geometry">
            <mxPoint x="280" y="1250" as="sourcePoint" />
            <Array as="points">
              <mxPoint x="330" y="1250" />
              <mxPoint x="365" y="1260" />
            </Array>
            <mxPoint x="460" y="1250" as="targetPoint" />
          </mxGeometry>
        </mxCell>
        <mxCell id="hkbijl6ttnB5Sjc4T6V5-155" value="&amp;nbsp;" style="html=1;points=[];perimeter=orthogonalPerimeter;outlineConnect=0;targetShapes=umlLifeline;portConstraint=eastwest;newEdgeStyle={&quot;edgeStyle&quot;:&quot;elbowEdgeStyle&quot;,&quot;elbow&quot;:&quot;vertical&quot;,&quot;curved&quot;:0,&quot;rounded&quot;:0};" vertex="1" parent="aM9ryv3xv72pqoxQDRHE-5">
          <mxGeometry x="45" y="990" width="10" height="50" as="geometry" />
        </mxCell>
        <mxCell id="hkbijl6ttnB5Sjc4T6V5-73" value="&amp;nbsp;" style="html=1;points=[];perimeter=orthogonalPerimeter;outlineConnect=0;targetShapes=umlLifeline;portConstraint=eastwest;newEdgeStyle={&quot;edgeStyle&quot;:&quot;elbowEdgeStyle&quot;,&quot;elbow&quot;:&quot;vertical&quot;,&quot;curved&quot;:0,&quot;rounded&quot;:0};" vertex="1" parent="aM9ryv3xv72pqoxQDRHE-5">
          <mxGeometry x="270" y="990" width="10" height="50" as="geometry" />
        </mxCell>
        <mxCell id="hkbijl6ttnB5Sjc4T6V5-151" value="&amp;nbsp;" style="html=1;points=[];perimeter=orthogonalPerimeter;outlineConnect=0;targetShapes=umlLifeline;portConstraint=eastwest;newEdgeStyle={&quot;edgeStyle&quot;:&quot;elbowEdgeStyle&quot;,&quot;elbow&quot;:&quot;vertical&quot;,&quot;curved&quot;:0,&quot;rounded&quot;:0};" vertex="1" parent="aM9ryv3xv72pqoxQDRHE-5">
          <mxGeometry x="270" y="1060" width="10" height="30" as="geometry" />
        </mxCell>
        <mxCell id="hkbijl6ttnB5Sjc4T6V5-80" value="&amp;nbsp;" style="html=1;points=[];perimeter=orthogonalPerimeter;outlineConnect=0;targetShapes=umlLifeline;portConstraint=eastwest;newEdgeStyle={&quot;edgeStyle&quot;:&quot;elbowEdgeStyle&quot;,&quot;elbow&quot;:&quot;vertical&quot;,&quot;curved&quot;:0,&quot;rounded&quot;:0};" vertex="1" parent="aM9ryv3xv72pqoxQDRHE-5">
          <mxGeometry x="465" y="990" width="10" height="50" as="geometry" />
        </mxCell>
        <mxCell id="hkbijl6ttnB5Sjc4T6V5-152" value="&amp;nbsp;" style="html=1;points=[];perimeter=orthogonalPerimeter;outlineConnect=0;targetShapes=umlLifeline;portConstraint=eastwest;newEdgeStyle={&quot;edgeStyle&quot;:&quot;elbowEdgeStyle&quot;,&quot;elbow&quot;:&quot;vertical&quot;,&quot;curved&quot;:0,&quot;rounded&quot;:0};" vertex="1" parent="aM9ryv3xv72pqoxQDRHE-5">
          <mxGeometry x="465" y="1060" width="10" height="30" as="geometry" />
        </mxCell>
        <mxCell id="hkbijl6ttnB5Sjc4T6V5-85" value="Display Client details" style="html=1;verticalAlign=bottom;endArrow=block;edgeStyle=elbowEdgeStyle;elbow=vertical;curved=0;rounded=0;" edge="1" parent="aM9ryv3xv72pqoxQDRHE-5" target="hkbijl6ttnB5Sjc4T6V5-152">
          <mxGeometry relative="1" as="geometry">
            <mxPoint x="280" y="1070" as="sourcePoint" />
            <Array as="points">
              <mxPoint x="330" y="1070" />
              <mxPoint x="365" y="1080" />
            </Array>
            <mxPoint x="460" y="1070" as="targetPoint" />
          </mxGeometry>
        </mxCell>
        <mxCell id="hkbijl6ttnB5Sjc4T6V5-77" value="Client Register" style="html=1;verticalAlign=bottom;endArrow=block;edgeStyle=elbowEdgeStyle;elbow=vertical;curved=0;rounded=0;entryX=0.5;entryY=0.053;entryDx=0;entryDy=0;entryPerimeter=0;" edge="1" parent="aM9ryv3xv72pqoxQDRHE-5">
          <mxGeometry x="-0.0029" relative="1" as="geometry">
            <mxPoint x="-125" y="1000.5" as="sourcePoint" />
            <Array as="points" />
            <mxPoint x="45" y="1000" as="targetPoint" />
            <mxPoint as="offset" />
          </mxGeometry>
        </mxCell>
        <mxCell id="hkbijl6ttnB5Sjc4T6V5-78" value="POST user_id, password&lt;div&gt;role&lt;/div&gt;" style="html=1;verticalAlign=bottom;endArrow=block;edgeStyle=elbowEdgeStyle;elbow=vertical;curved=0;rounded=0;" edge="1" parent="aM9ryv3xv72pqoxQDRHE-5">
          <mxGeometry x="-0.0029" relative="1" as="geometry">
            <mxPoint x="55" y="1010" as="sourcePoint" />
            <Array as="points" />
            <mxPoint x="270" y="1010.25" as="targetPoint" />
            <mxPoint as="offset" />
          </mxGeometry>
        </mxCell>
        <mxCell id="hkbijl6ttnB5Sjc4T6V5-81" value="Client created successfully" style="html=1;verticalAlign=bottom;endArrow=block;edgeStyle=elbowEdgeStyle;elbow=vertical;curved=0;rounded=0;" edge="1" parent="aM9ryv3xv72pqoxQDRHE-5" target="hkbijl6ttnB5Sjc4T6V5-80">
          <mxGeometry x="-0.0029" relative="1" as="geometry">
            <mxPoint x="280" y="1020.5" as="sourcePoint" />
            <Array as="points" />
            <mxPoint x="450" y="1020" as="targetPoint" />
            <mxPoint as="offset" />
          </mxGeometry>
        </mxCell>
        <mxCell id="hkbijl6ttnB5Sjc4T6V5-82" value="Client userId and Password" style="html=1;verticalAlign=bottom;endArrow=block;edgeStyle=elbowEdgeStyle;elbow=vertical;curved=0;rounded=0;" edge="1" parent="aM9ryv3xv72pqoxQDRHE-5">
          <mxGeometry relative="1" as="geometry">
            <mxPoint x="-125" y="1049" as="sourcePoint" />
            <Array as="points">
              <mxPoint x="-35" y="1049" />
            </Array>
            <mxPoint x="45" y="1049" as="targetPoint" />
          </mxGeometry>
        </mxCell>
        <mxCell id="hkbijl6ttnB5Sjc4T6V5-83" value="Invalid credentials" style="html=1;verticalAlign=bottom;endArrow=block;edgeStyle=elbowEdgeStyle;elbow=vertical;curved=0;rounded=0;" edge="1" parent="aM9ryv3xv72pqoxQDRHE-5">
          <mxGeometry relative="1" as="geometry">
            <mxPoint x="45" y="1069" as="sourcePoint" />
            <Array as="points">
              <mxPoint x="-55" y="1069" />
            </Array>
            <mxPoint x="-125" y="1069" as="targetPoint" />
          </mxGeometry>
        </mxCell>
        <mxCell id="hkbijl6ttnB5Sjc4T6V5-84" value="GET - Client Details by Client_id" style="html=1;verticalAlign=bottom;endArrow=block;edgeStyle=elbowEdgeStyle;elbow=vertical;curved=0;rounded=0;entryX=-0.433;entryY=-0.013;entryDx=0;entryDy=0;entryPerimeter=0;" edge="1" parent="aM9ryv3xv72pqoxQDRHE-5">
          <mxGeometry relative="1" as="geometry">
            <mxPoint x="55" y="1060.2600000000002" as="sourcePoint" />
            <Array as="points">
              <mxPoint x="110" y="1060.26" />
              <mxPoint x="145" y="1070.26" />
            </Array>
            <mxPoint x="265.66999999999996" y="1059.9999999999998" as="targetPoint" />
          </mxGeometry>
        </mxCell>
        <mxCell id="aM9ryv3xv72pqoxQDRHE-7" value="Admin userId and Password" style="html=1;verticalAlign=bottom;endArrow=block;edgeStyle=elbowEdgeStyle;elbow=vertical;curved=0;rounded=0;" parent="1" source="aM9ryv3xv72pqoxQDRHE-2" target="aM9ryv3xv72pqoxQDRHE-6" edge="1">
          <mxGeometry relative="1" as="geometry">
            <mxPoint x="195" y="130" as="sourcePoint" />
            <Array as="points">
              <mxPoint x="180" y="120" />
            </Array>
          </mxGeometry>
        </mxCell>
        <mxCell id="aM9ryv3xv72pqoxQDRHE-9" value="Invalid credentials" style="html=1;verticalAlign=bottom;endArrow=block;edgeStyle=elbowEdgeStyle;elbow=vertical;curved=0;rounded=0;" parent="1" edge="1">
          <mxGeometry relative="1" as="geometry">
            <mxPoint x="265" y="150" as="sourcePoint" />
            <Array as="points">
              <mxPoint x="170" y="140" />
            </Array>
            <mxPoint x="95" y="140" as="targetPoint" />
          </mxGeometry>
        </mxCell>
        <mxCell id="hkbijl6ttnB5Sjc4T6V5-1" value="Server" style="shape=umlLifeline;perimeter=lifelinePerimeter;whiteSpace=wrap;html=1;container=0;dropTarget=0;collapsible=0;recursiveResize=0;outlineConnect=0;portConstraint=eastwest;newEdgeStyle={&quot;edgeStyle&quot;:&quot;elbowEdgeStyle&quot;,&quot;elbow&quot;:&quot;vertical&quot;,&quot;curved&quot;:0,&quot;rounded&quot;:0};" vertex="1" parent="1">
          <mxGeometry x="445" y="40" width="100" height="1360" as="geometry" />
        </mxCell>
        <mxCell id="hkbijl6ttnB5Sjc4T6V5-53" value="&lt;span style=&quot;color: rgb(0, 0, 0); font-family: Helvetica; font-size: 12px; font-style: normal; font-variant-ligatures: normal; font-variant-caps: normal; font-weight: 400; letter-spacing: normal; orphans: 2; text-align: center; text-indent: 0px; text-transform: none; widows: 2; word-spacing: 0px; -webkit-text-stroke-width: 0px; white-space: nowrap; background-color: rgb(251, 251, 251); text-decoration-thickness: initial; text-decoration-style: initial; text-decoration-color: initial; display: inline !important; float: none;&quot;&gt;&amp;nbsp;&lt;/span&gt;" style="text;whiteSpace=wrap;html=1;" vertex="1" parent="hkbijl6ttnB5Sjc4T6V5-1">
          <mxGeometry x="157.5" y="900" width="40" height="40" as="geometry" />
        </mxCell>
        <mxCell id="hkbijl6ttnB5Sjc4T6V5-59" value="READ - GET payout_by_position graph" style="html=1;verticalAlign=bottom;endArrow=block;edgeStyle=elbowEdgeStyle;elbow=vertical;curved=0;rounded=0;" edge="1" parent="hkbijl6ttnB5Sjc4T6V5-1" source="aM9ryv3xv72pqoxQDRHE-6">
          <mxGeometry relative="1" as="geometry">
            <mxPoint x="-127.5" y="840.5" as="sourcePoint" />
            <Array as="points" />
            <mxPoint x="42.5" y="840" as="targetPoint" />
          </mxGeometry>
        </mxCell>
        <mxCell id="hkbijl6ttnB5Sjc4T6V5-60" value="READ - GET hours_vs_payout graph" style="html=1;verticalAlign=bottom;endArrow=block;edgeStyle=elbowEdgeStyle;elbow=vertical;curved=0;rounded=0;" edge="1" parent="hkbijl6ttnB5Sjc4T6V5-1" source="aM9ryv3xv72pqoxQDRHE-6">
          <mxGeometry x="-0.0029" relative="1" as="geometry">
            <mxPoint x="-127.5" y="870.5" as="sourcePoint" />
            <Array as="points" />
            <mxPoint x="42.5" y="870" as="targetPoint" />
            <mxPoint as="offset" />
          </mxGeometry>
        </mxCell>
        <mxCell id="hkbijl6ttnB5Sjc4T6V5-61" value="READ - GET hourly_pay_distribution graph" style="html=1;verticalAlign=bottom;endArrow=block;edgeStyle=elbowEdgeStyle;elbow=vertical;curved=0;rounded=0;" edge="1" parent="hkbijl6ttnB5Sjc4T6V5-1" source="aM9ryv3xv72pqoxQDRHE-6">
          <mxGeometry relative="1" as="geometry">
            <mxPoint x="-127.5" y="900.5" as="sourcePoint" />
            <Array as="points" />
            <mxPoint x="42.5" y="900" as="targetPoint" />
          </mxGeometry>
        </mxCell>
        <mxCell id="hkbijl6ttnB5Sjc4T6V5-62" value="READ - GET employees_by_position" style="html=1;verticalAlign=bottom;endArrow=block;edgeStyle=elbowEdgeStyle;elbow=vertical;curved=0;rounded=0;" edge="1" parent="hkbijl6ttnB5Sjc4T6V5-1" source="aM9ryv3xv72pqoxQDRHE-6">
          <mxGeometry relative="1" as="geometry">
            <mxPoint x="-127.5" y="930.5" as="sourcePoint" />
            <Array as="points" />
            <mxPoint x="42.5" y="930" as="targetPoint" />
          </mxGeometry>
        </mxCell>
        <mxCell id="hkbijl6ttnB5Sjc4T6V5-64" value="Graph is displayed" style="html=1;verticalAlign=bottom;endArrow=block;edgeStyle=elbowEdgeStyle;elbow=vertical;curved=0;rounded=0;" edge="1" parent="hkbijl6ttnB5Sjc4T6V5-1" target="hkbijl6ttnB5Sjc4T6V5-145">
          <mxGeometry relative="1" as="geometry">
            <mxPoint x="52.5" y="880.5" as="sourcePoint" />
            <Array as="points" />
            <mxPoint x="222.5" y="880" as="targetPoint" />
          </mxGeometry>
        </mxCell>
        <mxCell id="hkbijl6ttnB5Sjc4T6V5-65" value="Graph is displayed" style="html=1;verticalAlign=bottom;endArrow=block;edgeStyle=elbowEdgeStyle;elbow=vertical;curved=0;rounded=0;" edge="1" parent="hkbijl6ttnB5Sjc4T6V5-1" target="hkbijl6ttnB5Sjc4T6V5-147">
          <mxGeometry relative="1" as="geometry">
            <mxPoint x="52.5" y="910.5" as="sourcePoint" />
            <Array as="points" />
            <mxPoint x="222.5" y="910" as="targetPoint" />
          </mxGeometry>
        </mxCell>
        <mxCell id="hkbijl6ttnB5Sjc4T6V5-103" value="&amp;nbsp;" style="html=1;points=[];perimeter=orthogonalPerimeter;outlineConnect=0;targetShapes=umlLifeline;portConstraint=eastwest;newEdgeStyle={&quot;edgeStyle&quot;:&quot;elbowEdgeStyle&quot;,&quot;elbow&quot;:&quot;vertical&quot;,&quot;curved&quot;:0,&quot;rounded&quot;:0};" vertex="1" parent="hkbijl6ttnB5Sjc4T6V5-1">
          <mxGeometry x="45" y="80" width="10" height="50" as="geometry" />
        </mxCell>
        <mxCell id="hkbijl6ttnB5Sjc4T6V5-104" value="&amp;nbsp;" style="html=1;points=[];perimeter=orthogonalPerimeter;outlineConnect=0;targetShapes=umlLifeline;portConstraint=eastwest;newEdgeStyle={&quot;edgeStyle&quot;:&quot;elbowEdgeStyle&quot;,&quot;elbow&quot;:&quot;vertical&quot;,&quot;curved&quot;:0,&quot;rounded&quot;:0};" vertex="1" parent="hkbijl6ttnB5Sjc4T6V5-1">
          <mxGeometry x="45" y="140" width="10" height="20" as="geometry" />
        </mxCell>
        <mxCell id="hkbijl6ttnB5Sjc4T6V5-115" value="&amp;nbsp;" style="html=1;points=[];perimeter=orthogonalPerimeter;outlineConnect=0;targetShapes=umlLifeline;portConstraint=eastwest;newEdgeStyle={&quot;edgeStyle&quot;:&quot;elbowEdgeStyle&quot;,&quot;elbow&quot;:&quot;vertical&quot;,&quot;curved&quot;:0,&quot;rounded&quot;:0};" vertex="1" parent="hkbijl6ttnB5Sjc4T6V5-1">
          <mxGeometry x="45" y="180" width="10" height="30" as="geometry" />
        </mxCell>
        <mxCell id="hkbijl6ttnB5Sjc4T6V5-117" value="&amp;nbsp;" style="html=1;points=[];perimeter=orthogonalPerimeter;outlineConnect=0;targetShapes=umlLifeline;portConstraint=eastwest;newEdgeStyle={&quot;edgeStyle&quot;:&quot;elbowEdgeStyle&quot;,&quot;elbow&quot;:&quot;vertical&quot;,&quot;curved&quot;:0,&quot;rounded&quot;:0};" vertex="1" parent="hkbijl6ttnB5Sjc4T6V5-1">
          <mxGeometry x="45" y="240" width="10" height="30" as="geometry" />
        </mxCell>
        <mxCell id="hkbijl6ttnB5Sjc4T6V5-122" value="&amp;nbsp;" style="html=1;points=[];perimeter=orthogonalPerimeter;outlineConnect=0;targetShapes=umlLifeline;portConstraint=eastwest;newEdgeStyle={&quot;edgeStyle&quot;:&quot;elbowEdgeStyle&quot;,&quot;elbow&quot;:&quot;vertical&quot;,&quot;curved&quot;:0,&quot;rounded&quot;:0};" vertex="1" parent="hkbijl6ttnB5Sjc4T6V5-1">
          <mxGeometry x="45" y="320" width="10" height="20" as="geometry" />
        </mxCell>
        <mxCell id="hkbijl6ttnB5Sjc4T6V5-124" value="&amp;nbsp;" style="html=1;points=[];perimeter=orthogonalPerimeter;outlineConnect=0;targetShapes=umlLifeline;portConstraint=eastwest;newEdgeStyle={&quot;edgeStyle&quot;:&quot;elbowEdgeStyle&quot;,&quot;elbow&quot;:&quot;vertical&quot;,&quot;curved&quot;:0,&quot;rounded&quot;:0};" vertex="1" parent="hkbijl6ttnB5Sjc4T6V5-1">
          <mxGeometry x="45" y="350" width="10" height="30" as="geometry" />
        </mxCell>
        <mxCell id="hkbijl6ttnB5Sjc4T6V5-126" value="&amp;nbsp;" style="html=1;points=[];perimeter=orthogonalPerimeter;outlineConnect=0;targetShapes=umlLifeline;portConstraint=eastwest;newEdgeStyle={&quot;edgeStyle&quot;:&quot;elbowEdgeStyle&quot;,&quot;elbow&quot;:&quot;vertical&quot;,&quot;curved&quot;:0,&quot;rounded&quot;:0};" vertex="1" parent="hkbijl6ttnB5Sjc4T6V5-1">
          <mxGeometry x="45" y="390" width="10" height="30" as="geometry" />
        </mxCell>
        <mxCell id="hkbijl6ttnB5Sjc4T6V5-128" value="&amp;nbsp;" style="html=1;points=[];perimeter=orthogonalPerimeter;outlineConnect=0;targetShapes=umlLifeline;portConstraint=eastwest;newEdgeStyle={&quot;edgeStyle&quot;:&quot;elbowEdgeStyle&quot;,&quot;elbow&quot;:&quot;vertical&quot;,&quot;curved&quot;:0,&quot;rounded&quot;:0};" vertex="1" parent="hkbijl6ttnB5Sjc4T6V5-1">
          <mxGeometry x="45" y="450" width="10" height="30" as="geometry" />
        </mxCell>
        <mxCell id="hkbijl6ttnB5Sjc4T6V5-130" value="&amp;nbsp;" style="html=1;points=[];perimeter=orthogonalPerimeter;outlineConnect=0;targetShapes=umlLifeline;portConstraint=eastwest;newEdgeStyle={&quot;edgeStyle&quot;:&quot;elbowEdgeStyle&quot;,&quot;elbow&quot;:&quot;vertical&quot;,&quot;curved&quot;:0,&quot;rounded&quot;:0};" vertex="1" parent="hkbijl6ttnB5Sjc4T6V5-1">
          <mxGeometry x="45" y="540" width="10" height="20" as="geometry" />
        </mxCell>
        <mxCell id="hkbijl6ttnB5Sjc4T6V5-131" value="&amp;nbsp;" style="html=1;points=[];perimeter=orthogonalPerimeter;outlineConnect=0;targetShapes=umlLifeline;portConstraint=eastwest;newEdgeStyle={&quot;edgeStyle&quot;:&quot;elbowEdgeStyle&quot;,&quot;elbow&quot;:&quot;vertical&quot;,&quot;curved&quot;:0,&quot;rounded&quot;:0};" vertex="1" parent="hkbijl6ttnB5Sjc4T6V5-1">
          <mxGeometry x="45" y="570" width="10" height="20" as="geometry" />
        </mxCell>
        <mxCell id="hkbijl6ttnB5Sjc4T6V5-134" value="&amp;nbsp;" style="html=1;points=[];perimeter=orthogonalPerimeter;outlineConnect=0;targetShapes=umlLifeline;portConstraint=eastwest;newEdgeStyle={&quot;edgeStyle&quot;:&quot;elbowEdgeStyle&quot;,&quot;elbow&quot;:&quot;vertical&quot;,&quot;curved&quot;:0,&quot;rounded&quot;:0};" vertex="1" parent="hkbijl6ttnB5Sjc4T6V5-1">
          <mxGeometry x="45" y="610" width="10" height="30" as="geometry" />
        </mxCell>
        <mxCell id="hkbijl6ttnB5Sjc4T6V5-136" value="&amp;nbsp;" style="html=1;points=[];perimeter=orthogonalPerimeter;outlineConnect=0;targetShapes=umlLifeline;portConstraint=eastwest;newEdgeStyle={&quot;edgeStyle&quot;:&quot;elbowEdgeStyle&quot;,&quot;elbow&quot;:&quot;vertical&quot;,&quot;curved&quot;:0,&quot;rounded&quot;:0};" vertex="1" parent="hkbijl6ttnB5Sjc4T6V5-1">
          <mxGeometry x="45" y="670" width="10" height="30" as="geometry" />
        </mxCell>
        <mxCell id="hkbijl6ttnB5Sjc4T6V5-142" value="&amp;nbsp;" style="html=1;points=[];perimeter=orthogonalPerimeter;outlineConnect=0;targetShapes=umlLifeline;portConstraint=eastwest;newEdgeStyle={&quot;edgeStyle&quot;:&quot;elbowEdgeStyle&quot;,&quot;elbow&quot;:&quot;vertical&quot;,&quot;curved&quot;:0,&quot;rounded&quot;:0};" vertex="1" parent="hkbijl6ttnB5Sjc4T6V5-1">
          <mxGeometry x="45" y="840" width="10" height="20" as="geometry" />
        </mxCell>
        <mxCell id="hkbijl6ttnB5Sjc4T6V5-144" value="&amp;nbsp;" style="html=1;points=[];perimeter=orthogonalPerimeter;outlineConnect=0;targetShapes=umlLifeline;portConstraint=eastwest;newEdgeStyle={&quot;edgeStyle&quot;:&quot;elbowEdgeStyle&quot;,&quot;elbow&quot;:&quot;vertical&quot;,&quot;curved&quot;:0,&quot;rounded&quot;:0};" vertex="1" parent="hkbijl6ttnB5Sjc4T6V5-1">
          <mxGeometry x="45" y="870" width="10" height="20" as="geometry" />
        </mxCell>
        <mxCell id="hkbijl6ttnB5Sjc4T6V5-146" value="&amp;nbsp;" style="html=1;points=[];perimeter=orthogonalPerimeter;outlineConnect=0;targetShapes=umlLifeline;portConstraint=eastwest;newEdgeStyle={&quot;edgeStyle&quot;:&quot;elbowEdgeStyle&quot;,&quot;elbow&quot;:&quot;vertical&quot;,&quot;curved&quot;:0,&quot;rounded&quot;:0};" vertex="1" parent="hkbijl6ttnB5Sjc4T6V5-1">
          <mxGeometry x="45" y="900" width="10" height="20" as="geometry" />
        </mxCell>
        <mxCell id="hkbijl6ttnB5Sjc4T6V5-150" value="&amp;nbsp;" style="html=1;points=[];perimeter=orthogonalPerimeter;outlineConnect=0;targetShapes=umlLifeline;portConstraint=eastwest;newEdgeStyle={&quot;edgeStyle&quot;:&quot;elbowEdgeStyle&quot;,&quot;elbow&quot;:&quot;vertical&quot;,&quot;curved&quot;:0,&quot;rounded&quot;:0};" vertex="1" parent="hkbijl6ttnB5Sjc4T6V5-1">
          <mxGeometry x="45" y="930" width="10" height="30" as="geometry" />
        </mxCell>
        <mxCell id="hkbijl6ttnB5Sjc4T6V5-3" value="Output" style="shape=umlLifeline;perimeter=lifelinePerimeter;whiteSpace=wrap;html=1;container=0;dropTarget=0;collapsible=0;recursiveResize=0;outlineConnect=0;portConstraint=eastwest;newEdgeStyle={&quot;edgeStyle&quot;:&quot;elbowEdgeStyle&quot;,&quot;elbow&quot;:&quot;vertical&quot;,&quot;curved&quot;:0,&quot;rounded&quot;:0};" vertex="1" parent="1">
          <mxGeometry x="640" y="40" width="100" height="1360" as="geometry" />
        </mxCell>
        <mxCell id="hkbijl6ttnB5Sjc4T6V5-4" value="&amp;nbsp;" style="html=1;points=[];perimeter=orthogonalPerimeter;outlineConnect=0;targetShapes=umlLifeline;portConstraint=eastwest;newEdgeStyle={&quot;edgeStyle&quot;:&quot;elbowEdgeStyle&quot;,&quot;elbow&quot;:&quot;vertical&quot;,&quot;curved&quot;:0,&quot;rounded&quot;:0};" vertex="1" parent="hkbijl6ttnB5Sjc4T6V5-3">
          <mxGeometry x="45" y="80" width="10" height="50" as="geometry" />
        </mxCell>
        <mxCell id="hkbijl6ttnB5Sjc4T6V5-102" value="&amp;nbsp;" style="html=1;points=[];perimeter=orthogonalPerimeter;outlineConnect=0;targetShapes=umlLifeline;portConstraint=eastwest;newEdgeStyle={&quot;edgeStyle&quot;:&quot;elbowEdgeStyle&quot;,&quot;elbow&quot;:&quot;vertical&quot;,&quot;curved&quot;:0,&quot;rounded&quot;:0};" vertex="1" parent="hkbijl6ttnB5Sjc4T6V5-3">
          <mxGeometry x="45" y="150" width="10" height="20" as="geometry" />
        </mxCell>
        <mxCell id="hkbijl6ttnB5Sjc4T6V5-105" value="&amp;nbsp;" style="html=1;points=[];perimeter=orthogonalPerimeter;outlineConnect=0;targetShapes=umlLifeline;portConstraint=eastwest;newEdgeStyle={&quot;edgeStyle&quot;:&quot;elbowEdgeStyle&quot;,&quot;elbow&quot;:&quot;vertical&quot;,&quot;curved&quot;:0,&quot;rounded&quot;:0};" vertex="1" parent="hkbijl6ttnB5Sjc4T6V5-3">
          <mxGeometry x="45" y="190" width="10" height="20" as="geometry" />
        </mxCell>
        <mxCell id="hkbijl6ttnB5Sjc4T6V5-120" value="&amp;nbsp;" style="html=1;points=[];perimeter=orthogonalPerimeter;outlineConnect=0;targetShapes=umlLifeline;portConstraint=eastwest;newEdgeStyle={&quot;edgeStyle&quot;:&quot;elbowEdgeStyle&quot;,&quot;elbow&quot;:&quot;vertical&quot;,&quot;curved&quot;:0,&quot;rounded&quot;:0};" vertex="1" parent="hkbijl6ttnB5Sjc4T6V5-3">
          <mxGeometry x="45" y="250" width="10" height="20" as="geometry" />
        </mxCell>
        <mxCell id="hkbijl6ttnB5Sjc4T6V5-123" value="&amp;nbsp;" style="html=1;points=[];perimeter=orthogonalPerimeter;outlineConnect=0;targetShapes=umlLifeline;portConstraint=eastwest;newEdgeStyle={&quot;edgeStyle&quot;:&quot;elbowEdgeStyle&quot;,&quot;elbow&quot;:&quot;vertical&quot;,&quot;curved&quot;:0,&quot;rounded&quot;:0};" vertex="1" parent="hkbijl6ttnB5Sjc4T6V5-3">
          <mxGeometry x="45" y="330" width="10" height="20" as="geometry" />
        </mxCell>
        <mxCell id="hkbijl6ttnB5Sjc4T6V5-125" value="&amp;nbsp;" style="html=1;points=[];perimeter=orthogonalPerimeter;outlineConnect=0;targetShapes=umlLifeline;portConstraint=eastwest;newEdgeStyle={&quot;edgeStyle&quot;:&quot;elbowEdgeStyle&quot;,&quot;elbow&quot;:&quot;vertical&quot;,&quot;curved&quot;:0,&quot;rounded&quot;:0};" vertex="1" parent="hkbijl6ttnB5Sjc4T6V5-3">
          <mxGeometry x="45" y="370" width="10" height="20" as="geometry" />
        </mxCell>
        <mxCell id="hkbijl6ttnB5Sjc4T6V5-127" value="&amp;nbsp;" style="html=1;points=[];perimeter=orthogonalPerimeter;outlineConnect=0;targetShapes=umlLifeline;portConstraint=eastwest;newEdgeStyle={&quot;edgeStyle&quot;:&quot;elbowEdgeStyle&quot;,&quot;elbow&quot;:&quot;vertical&quot;,&quot;curved&quot;:0,&quot;rounded&quot;:0};" vertex="1" parent="hkbijl6ttnB5Sjc4T6V5-3">
          <mxGeometry x="45" y="400" width="10" height="20" as="geometry" />
        </mxCell>
        <mxCell id="hkbijl6ttnB5Sjc4T6V5-129" value="&amp;nbsp;" style="html=1;points=[];perimeter=orthogonalPerimeter;outlineConnect=0;targetShapes=umlLifeline;portConstraint=eastwest;newEdgeStyle={&quot;edgeStyle&quot;:&quot;elbowEdgeStyle&quot;,&quot;elbow&quot;:&quot;vertical&quot;,&quot;curved&quot;:0,&quot;rounded&quot;:0};" vertex="1" parent="hkbijl6ttnB5Sjc4T6V5-3">
          <mxGeometry x="45" y="450" width="10" height="20" as="geometry" />
        </mxCell>
        <mxCell id="hkbijl6ttnB5Sjc4T6V5-132" value="&amp;nbsp;" style="html=1;points=[];perimeter=orthogonalPerimeter;outlineConnect=0;targetShapes=umlLifeline;portConstraint=eastwest;newEdgeStyle={&quot;edgeStyle&quot;:&quot;elbowEdgeStyle&quot;,&quot;elbow&quot;:&quot;vertical&quot;,&quot;curved&quot;:0,&quot;rounded&quot;:0};" vertex="1" parent="hkbijl6ttnB5Sjc4T6V5-3">
          <mxGeometry x="45" y="540" width="10" height="20" as="geometry" />
        </mxCell>
        <mxCell id="hkbijl6ttnB5Sjc4T6V5-133" value="&amp;nbsp;" style="html=1;points=[];perimeter=orthogonalPerimeter;outlineConnect=0;targetShapes=umlLifeline;portConstraint=eastwest;newEdgeStyle={&quot;edgeStyle&quot;:&quot;elbowEdgeStyle&quot;,&quot;elbow&quot;:&quot;vertical&quot;,&quot;curved&quot;:0,&quot;rounded&quot;:0};" vertex="1" parent="hkbijl6ttnB5Sjc4T6V5-3">
          <mxGeometry x="45" y="570" width="10" height="20" as="geometry" />
        </mxCell>
        <mxCell id="hkbijl6ttnB5Sjc4T6V5-135" value="&amp;nbsp;" style="html=1;points=[];perimeter=orthogonalPerimeter;outlineConnect=0;targetShapes=umlLifeline;portConstraint=eastwest;newEdgeStyle={&quot;edgeStyle&quot;:&quot;elbowEdgeStyle&quot;,&quot;elbow&quot;:&quot;vertical&quot;,&quot;curved&quot;:0,&quot;rounded&quot;:0};" vertex="1" parent="hkbijl6ttnB5Sjc4T6V5-3">
          <mxGeometry x="45" y="610" width="10" height="20" as="geometry" />
        </mxCell>
        <mxCell id="hkbijl6ttnB5Sjc4T6V5-137" value="&amp;nbsp;" style="html=1;points=[];perimeter=orthogonalPerimeter;outlineConnect=0;targetShapes=umlLifeline;portConstraint=eastwest;newEdgeStyle={&quot;edgeStyle&quot;:&quot;elbowEdgeStyle&quot;,&quot;elbow&quot;:&quot;vertical&quot;,&quot;curved&quot;:0,&quot;rounded&quot;:0};" vertex="1" parent="hkbijl6ttnB5Sjc4T6V5-3">
          <mxGeometry x="45" y="670" width="10" height="20" as="geometry" />
        </mxCell>
        <mxCell id="hkbijl6ttnB5Sjc4T6V5-143" value="&amp;nbsp;" style="html=1;points=[];perimeter=orthogonalPerimeter;outlineConnect=0;targetShapes=umlLifeline;portConstraint=eastwest;newEdgeStyle={&quot;edgeStyle&quot;:&quot;elbowEdgeStyle&quot;,&quot;elbow&quot;:&quot;vertical&quot;,&quot;curved&quot;:0,&quot;rounded&quot;:0};" vertex="1" parent="hkbijl6ttnB5Sjc4T6V5-3">
          <mxGeometry x="45" y="840" width="10" height="20" as="geometry" />
        </mxCell>
        <mxCell id="hkbijl6ttnB5Sjc4T6V5-145" value="&amp;nbsp;" style="html=1;points=[];perimeter=orthogonalPerimeter;outlineConnect=0;targetShapes=umlLifeline;portConstraint=eastwest;newEdgeStyle={&quot;edgeStyle&quot;:&quot;elbowEdgeStyle&quot;,&quot;elbow&quot;:&quot;vertical&quot;,&quot;curved&quot;:0,&quot;rounded&quot;:0};" vertex="1" parent="hkbijl6ttnB5Sjc4T6V5-3">
          <mxGeometry x="45" y="870" width="10" height="20" as="geometry" />
        </mxCell>
        <mxCell id="hkbijl6ttnB5Sjc4T6V5-147" value="&amp;nbsp;" style="html=1;points=[];perimeter=orthogonalPerimeter;outlineConnect=0;targetShapes=umlLifeline;portConstraint=eastwest;newEdgeStyle={&quot;edgeStyle&quot;:&quot;elbowEdgeStyle&quot;,&quot;elbow&quot;:&quot;vertical&quot;,&quot;curved&quot;:0,&quot;rounded&quot;:0};" vertex="1" parent="hkbijl6ttnB5Sjc4T6V5-3">
          <mxGeometry x="45" y="900" width="10" height="20" as="geometry" />
        </mxCell>
        <mxCell id="hkbijl6ttnB5Sjc4T6V5-149" value="&amp;nbsp;" style="html=1;points=[];perimeter=orthogonalPerimeter;outlineConnect=0;targetShapes=umlLifeline;portConstraint=eastwest;newEdgeStyle={&quot;edgeStyle&quot;:&quot;elbowEdgeStyle&quot;,&quot;elbow&quot;:&quot;vertical&quot;,&quot;curved&quot;:0,&quot;rounded&quot;:0};" vertex="1" parent="hkbijl6ttnB5Sjc4T6V5-3">
          <mxGeometry x="45" y="930" width="10" height="30" as="geometry" />
        </mxCell>
        <mxCell id="hkbijl6ttnB5Sjc4T6V5-5" value="CREATE - POST clients details" style="html=1;verticalAlign=bottom;endArrow=block;edgeStyle=elbowEdgeStyle;elbow=vertical;curved=0;rounded=0;" edge="1" parent="1" source="aM9ryv3xv72pqoxQDRHE-6">
          <mxGeometry relative="1" as="geometry">
            <mxPoint x="280" y="150" as="sourcePoint" />
            <Array as="points">
              <mxPoint x="320" y="150" />
              <mxPoint x="355" y="160" />
            </Array>
            <mxPoint x="490" y="150" as="targetPoint" />
          </mxGeometry>
        </mxCell>
        <mxCell id="hkbijl6ttnB5Sjc4T6V5-6" value="Client details added&amp;nbsp;&lt;div&gt;successfully&lt;/div&gt;" style="html=1;verticalAlign=bottom;endArrow=block;edgeStyle=elbowEdgeStyle;elbow=vertical;curved=0;rounded=0;" edge="1" parent="1" target="hkbijl6ttnB5Sjc4T6V5-4">
          <mxGeometry relative="1" as="geometry">
            <mxPoint x="500" y="160.00000000000006" as="sourcePoint" />
            <Array as="points">
              <mxPoint x="535" y="160" />
            </Array>
            <mxPoint x="625" y="160" as="targetPoint" />
          </mxGeometry>
        </mxCell>
        <mxCell id="hkbijl6ttnB5Sjc4T6V5-8" value="READ - GET clients details" style="html=1;verticalAlign=bottom;endArrow=block;edgeStyle=elbowEdgeStyle;elbow=vertical;curved=0;rounded=0;" edge="1" parent="1" source="aM9ryv3xv72pqoxQDRHE-6">
          <mxGeometry relative="1" as="geometry">
            <mxPoint x="310" y="180" as="sourcePoint" />
            <Array as="points">
              <mxPoint x="360" y="180" />
              <mxPoint x="395" y="190" />
            </Array>
            <mxPoint x="490" y="180" as="targetPoint" />
          </mxGeometry>
        </mxCell>
        <mxCell id="hkbijl6ttnB5Sjc4T6V5-10" value="Displays Client details in JSON" style="html=1;verticalAlign=bottom;endArrow=block;edgeStyle=elbowEdgeStyle;elbow=vertical;curved=0;rounded=0;" edge="1" parent="1" target="hkbijl6ttnB5Sjc4T6V5-102">
          <mxGeometry x="-0.0026" relative="1" as="geometry">
            <mxPoint x="500" y="190" as="sourcePoint" />
            <Array as="points">
              <mxPoint x="680" y="190" />
            </Array>
            <mxPoint x="680" y="190" as="targetPoint" />
            <mxPoint as="offset" />
          </mxGeometry>
        </mxCell>
        <mxCell id="hkbijl6ttnB5Sjc4T6V5-11" value="UPDATE - PUT client details by client_id" style="html=1;verticalAlign=bottom;endArrow=block;edgeStyle=elbowEdgeStyle;elbow=vertical;curved=0;rounded=0;" edge="1" parent="1" target="hkbijl6ttnB5Sjc4T6V5-115">
          <mxGeometry relative="1" as="geometry">
            <mxPoint x="275" y="220" as="sourcePoint" />
            <Array as="points">
              <mxPoint x="325" y="220" />
              <mxPoint x="360" y="230" />
            </Array>
            <mxPoint x="455" y="220" as="targetPoint" />
          </mxGeometry>
        </mxCell>
        <mxCell id="hkbijl6ttnB5Sjc4T6V5-12" value="Client updated successfully" style="html=1;verticalAlign=bottom;endArrow=block;edgeStyle=elbowEdgeStyle;elbow=vertical;curved=0;rounded=0;" edge="1" parent="1" target="hkbijl6ttnB5Sjc4T6V5-105">
          <mxGeometry relative="1" as="geometry">
            <mxPoint x="500" y="230.5" as="sourcePoint" />
            <Array as="points" />
            <mxPoint x="675" y="230" as="targetPoint" />
          </mxGeometry>
        </mxCell>
        <mxCell id="hkbijl6ttnB5Sjc4T6V5-14" value="DELETE - client details by client_id" style="html=1;verticalAlign=bottom;endArrow=block;edgeStyle=elbowEdgeStyle;elbow=vertical;curved=0;rounded=0;" edge="1" parent="1" source="aM9ryv3xv72pqoxQDRHE-6" target="hkbijl6ttnB5Sjc4T6V5-117">
          <mxGeometry relative="1" as="geometry">
            <mxPoint x="280" y="280" as="sourcePoint" />
            <Array as="points">
              <mxPoint x="320" y="280" />
              <mxPoint x="355" y="290" />
            </Array>
            <mxPoint x="480" y="280" as="targetPoint" />
          </mxGeometry>
        </mxCell>
        <mxCell id="hkbijl6ttnB5Sjc4T6V5-16" value="Client not found" style="html=1;verticalAlign=bottom;endArrow=block;edgeStyle=elbowEdgeStyle;elbow=vertical;curved=0;rounded=0;" edge="1" parent="1" source="hkbijl6ttnB5Sjc4T6V5-115" target="aM9ryv3xv72pqoxQDRHE-6">
          <mxGeometry relative="1" as="geometry">
            <mxPoint x="445" y="240" as="sourcePoint" />
            <Array as="points">
              <mxPoint x="345" y="240" />
            </Array>
            <mxPoint x="280" y="240" as="targetPoint" />
          </mxGeometry>
        </mxCell>
        <mxCell id="hkbijl6ttnB5Sjc4T6V5-17" value="Client not found" style="html=1;verticalAlign=bottom;endArrow=block;edgeStyle=elbowEdgeStyle;elbow=vertical;curved=0;rounded=0;" edge="1" parent="1" source="hkbijl6ttnB5Sjc4T6V5-117" target="aM9ryv3xv72pqoxQDRHE-6">
          <mxGeometry relative="1" as="geometry">
            <mxPoint x="445" y="300" as="sourcePoint" />
            <Array as="points">
              <mxPoint x="345" y="300" />
            </Array>
            <mxPoint x="280" y="300" as="targetPoint" />
          </mxGeometry>
        </mxCell>
        <mxCell id="hkbijl6ttnB5Sjc4T6V5-18" value="Client deleted successfully" style="html=1;verticalAlign=bottom;endArrow=block;edgeStyle=elbowEdgeStyle;elbow=vertical;curved=0;rounded=0;" edge="1" parent="1" source="hkbijl6ttnB5Sjc4T6V5-117">
          <mxGeometry relative="1" as="geometry">
            <mxPoint x="510" y="290.5" as="sourcePoint" />
            <Array as="points" />
            <mxPoint x="685" y="290" as="targetPoint" />
          </mxGeometry>
        </mxCell>
        <mxCell id="hkbijl6ttnB5Sjc4T6V5-19" value="CREATE - POST employee details" style="html=1;verticalAlign=bottom;endArrow=block;edgeStyle=elbowEdgeStyle;elbow=vertical;curved=0;rounded=0;" edge="1" parent="1" target="hkbijl6ttnB5Sjc4T6V5-122">
          <mxGeometry relative="1" as="geometry">
            <mxPoint x="275" y="360" as="sourcePoint" />
            <Array as="points">
              <mxPoint x="320" y="360" />
              <mxPoint x="355" y="370" />
            </Array>
            <mxPoint x="450" y="360" as="targetPoint" />
          </mxGeometry>
        </mxCell>
        <mxCell id="hkbijl6ttnB5Sjc4T6V5-20" value="READ - GET employee details" style="html=1;verticalAlign=bottom;endArrow=block;edgeStyle=elbowEdgeStyle;elbow=vertical;curved=0;rounded=0;" edge="1" parent="1" target="hkbijl6ttnB5Sjc4T6V5-124">
          <mxGeometry relative="1" as="geometry">
            <mxPoint x="275" y="390" as="sourcePoint" />
            <Array as="points">
              <mxPoint x="320" y="390" />
              <mxPoint x="355" y="400" />
            </Array>
            <mxPoint x="450" y="390" as="targetPoint" />
          </mxGeometry>
        </mxCell>
        <mxCell id="hkbijl6ttnB5Sjc4T6V5-21" value="UPDATE - PUT employee&amp;nbsp;&lt;div&gt;details by employee_id&lt;/div&gt;" style="html=1;verticalAlign=bottom;endArrow=block;edgeStyle=elbowEdgeStyle;elbow=vertical;curved=0;rounded=0;" edge="1" parent="1" target="hkbijl6ttnB5Sjc4T6V5-126">
          <mxGeometry relative="1" as="geometry">
            <mxPoint x="275" y="430" as="sourcePoint" />
            <Array as="points">
              <mxPoint x="320" y="430" />
              <mxPoint x="355" y="440" />
            </Array>
            <mxPoint x="450" y="430" as="targetPoint" />
          </mxGeometry>
        </mxCell>
        <mxCell id="hkbijl6ttnB5Sjc4T6V5-22" value="DELETE - employee details by&lt;div&gt;employee_id&lt;/div&gt;" style="html=1;verticalAlign=bottom;endArrow=block;edgeStyle=elbowEdgeStyle;elbow=vertical;curved=0;rounded=0;" edge="1" parent="1" target="hkbijl6ttnB5Sjc4T6V5-128">
          <mxGeometry x="0.0006" relative="1" as="geometry">
            <mxPoint x="275" y="490" as="sourcePoint" />
            <Array as="points">
              <mxPoint x="325" y="490" />
              <mxPoint x="360" y="500" />
            </Array>
            <mxPoint x="455" y="490" as="targetPoint" />
            <mxPoint as="offset" />
          </mxGeometry>
        </mxCell>
        <mxCell id="hkbijl6ttnB5Sjc4T6V5-23" value="Employee not found" style="html=1;verticalAlign=bottom;endArrow=block;edgeStyle=elbowEdgeStyle;elbow=vertical;curved=0;rounded=0;" edge="1" parent="1" source="hkbijl6ttnB5Sjc4T6V5-126">
          <mxGeometry relative="1" as="geometry">
            <mxPoint x="445" y="450" as="sourcePoint" />
            <Array as="points">
              <mxPoint x="345" y="450" />
            </Array>
            <mxPoint x="275" y="450" as="targetPoint" />
          </mxGeometry>
        </mxCell>
        <mxCell id="hkbijl6ttnB5Sjc4T6V5-24" value="Employee not found" style="html=1;verticalAlign=bottom;endArrow=block;edgeStyle=elbowEdgeStyle;elbow=vertical;curved=0;rounded=0;" edge="1" parent="1" source="hkbijl6ttnB5Sjc4T6V5-128">
          <mxGeometry relative="1" as="geometry">
            <mxPoint x="445" y="510" as="sourcePoint" />
            <Array as="points">
              <mxPoint x="345" y="510" />
            </Array>
            <mxPoint x="275" y="510" as="targetPoint" />
          </mxGeometry>
        </mxCell>
        <mxCell id="hkbijl6ttnB5Sjc4T6V5-29" value="Employee details added successfully" style="html=1;verticalAlign=bottom;endArrow=block;edgeStyle=elbowEdgeStyle;elbow=vertical;curved=0;rounded=0;" edge="1" parent="1" source="hkbijl6ttnB5Sjc4T6V5-122">
          <mxGeometry relative="1" as="geometry">
            <mxPoint x="515" y="370" as="sourcePoint" />
            <Array as="points">
              <mxPoint x="595" y="370" />
            </Array>
            <mxPoint x="685" y="370" as="targetPoint" />
          </mxGeometry>
        </mxCell>
        <mxCell id="hkbijl6ttnB5Sjc4T6V5-30" value="Displays Employee details in JSON" style="html=1;verticalAlign=bottom;endArrow=block;edgeStyle=elbowEdgeStyle;elbow=vertical;curved=0;rounded=0;" edge="1" parent="1" target="hkbijl6ttnB5Sjc4T6V5-125">
          <mxGeometry relative="1" as="geometry">
            <mxPoint x="500" y="410.5" as="sourcePoint" />
            <Array as="points" />
            <mxPoint x="680" y="410" as="targetPoint" />
          </mxGeometry>
        </mxCell>
        <mxCell id="hkbijl6ttnB5Sjc4T6V5-31" value="Employee updated successfully" style="html=1;verticalAlign=bottom;endArrow=block;edgeStyle=elbowEdgeStyle;elbow=vertical;curved=0;rounded=0;" edge="1" parent="1" target="hkbijl6ttnB5Sjc4T6V5-127">
          <mxGeometry relative="1" as="geometry">
            <mxPoint x="500" y="440.5" as="sourcePoint" />
            <Array as="points" />
            <mxPoint x="675" y="440" as="targetPoint" />
          </mxGeometry>
        </mxCell>
        <mxCell id="hkbijl6ttnB5Sjc4T6V5-32" value="Emloyee deleted successfully" style="html=1;verticalAlign=bottom;endArrow=block;edgeStyle=elbowEdgeStyle;elbow=vertical;curved=0;rounded=0;" edge="1" parent="1" target="hkbijl6ttnB5Sjc4T6V5-129">
          <mxGeometry relative="1" as="geometry">
            <mxPoint x="500" y="500.33333333333337" as="sourcePoint" />
            <Array as="points" />
            <mxPoint x="625" y="500" as="targetPoint" />
          </mxGeometry>
        </mxCell>
        <mxCell id="hkbijl6ttnB5Sjc4T6V5-37" value="CREATE - POST Payroll details" style="html=1;verticalAlign=bottom;endArrow=block;edgeStyle=elbowEdgeStyle;elbow=vertical;curved=0;rounded=0;" edge="1" parent="1" source="aM9ryv3xv72pqoxQDRHE-6">
          <mxGeometry relative="1" as="geometry">
            <mxPoint x="310" y="580" as="sourcePoint" />
            <Array as="points">
              <mxPoint x="360" y="580" />
              <mxPoint x="395" y="590" />
            </Array>
            <mxPoint x="490" y="580" as="targetPoint" />
          </mxGeometry>
        </mxCell>
        <mxCell id="hkbijl6ttnB5Sjc4T6V5-38" value="READ - GET Payroll details" style="html=1;verticalAlign=bottom;endArrow=block;edgeStyle=elbowEdgeStyle;elbow=vertical;curved=0;rounded=0;" edge="1" parent="1" source="aM9ryv3xv72pqoxQDRHE-6">
          <mxGeometry relative="1" as="geometry">
            <mxPoint x="310" y="610" as="sourcePoint" />
            <Array as="points">
              <mxPoint x="360" y="610" />
              <mxPoint x="395" y="620" />
            </Array>
            <mxPoint x="490" y="610" as="targetPoint" />
          </mxGeometry>
        </mxCell>
        <mxCell id="hkbijl6ttnB5Sjc4T6V5-39" value="UPDATE - PUT Payroll details by&amp;nbsp;&lt;div&gt;Payroll_id&lt;/div&gt;" style="html=1;verticalAlign=bottom;endArrow=block;edgeStyle=elbowEdgeStyle;elbow=vertical;curved=0;rounded=0;" edge="1" parent="1" source="aM9ryv3xv72pqoxQDRHE-6">
          <mxGeometry relative="1" as="geometry">
            <mxPoint x="310" y="650" as="sourcePoint" />
            <Array as="points">
              <mxPoint x="360" y="650" />
              <mxPoint x="395" y="660" />
            </Array>
            <mxPoint x="490" y="650" as="targetPoint" />
          </mxGeometry>
        </mxCell>
        <mxCell id="hkbijl6ttnB5Sjc4T6V5-41" value="Payroll not found" style="html=1;verticalAlign=bottom;endArrow=block;edgeStyle=elbowEdgeStyle;elbow=vertical;curved=0;rounded=0;" edge="1" parent="1" source="hkbijl6ttnB5Sjc4T6V5-134" target="aM9ryv3xv72pqoxQDRHE-6">
          <mxGeometry relative="1" as="geometry">
            <mxPoint x="485" y="670" as="sourcePoint" />
            <Array as="points">
              <mxPoint x="385" y="670" />
            </Array>
            <mxPoint x="310" y="670" as="targetPoint" />
          </mxGeometry>
        </mxCell>
        <mxCell id="hkbijl6ttnB5Sjc4T6V5-42" value="Payroll not found" style="html=1;verticalAlign=bottom;endArrow=block;edgeStyle=elbowEdgeStyle;elbow=vertical;curved=0;rounded=0;" edge="1" parent="1" source="hkbijl6ttnB5Sjc4T6V5-136" target="aM9ryv3xv72pqoxQDRHE-6">
          <mxGeometry relative="1" as="geometry">
            <mxPoint x="485" y="730" as="sourcePoint" />
            <Array as="points">
              <mxPoint x="385" y="730" />
            </Array>
            <mxPoint x="310" y="730" as="targetPoint" />
          </mxGeometry>
        </mxCell>
        <mxCell id="hkbijl6ttnB5Sjc4T6V5-47" value="Payroll details added&amp;nbsp;&lt;div&gt;successfully&lt;/div&gt;" style="html=1;verticalAlign=bottom;endArrow=block;edgeStyle=elbowEdgeStyle;elbow=vertical;curved=0;rounded=0;" edge="1" parent="1" source="hkbijl6ttnB5Sjc4T6V5-130">
          <mxGeometry relative="1" as="geometry">
            <mxPoint x="515" y="590" as="sourcePoint" />
            <Array as="points">
              <mxPoint x="595" y="590" />
            </Array>
            <mxPoint x="685" y="590" as="targetPoint" />
          </mxGeometry>
        </mxCell>
        <mxCell id="hkbijl6ttnB5Sjc4T6V5-48" value="Displays Payroll details in JSON" style="html=1;verticalAlign=bottom;endArrow=block;edgeStyle=elbowEdgeStyle;elbow=vertical;curved=0;rounded=0;" edge="1" parent="1" source="hkbijl6ttnB5Sjc4T6V5-131">
          <mxGeometry relative="1" as="geometry">
            <mxPoint x="515" y="620.5" as="sourcePoint" />
            <Array as="points" />
            <mxPoint x="685" y="620" as="targetPoint" />
          </mxGeometry>
        </mxCell>
        <mxCell id="hkbijl6ttnB5Sjc4T6V5-49" value="Payroll updated successfully" style="html=1;verticalAlign=bottom;endArrow=block;edgeStyle=elbowEdgeStyle;elbow=vertical;curved=0;rounded=0;" edge="1" parent="1" source="hkbijl6ttnB5Sjc4T6V5-134">
          <mxGeometry relative="1" as="geometry">
            <mxPoint x="510" y="660.5" as="sourcePoint" />
            <Array as="points" />
            <mxPoint x="685" y="660" as="targetPoint" />
          </mxGeometry>
        </mxCell>
        <mxCell id="hkbijl6ttnB5Sjc4T6V5-50" value="Payroll deleted successfully" style="html=1;verticalAlign=bottom;endArrow=block;edgeStyle=elbowEdgeStyle;elbow=vertical;curved=0;rounded=0;" edge="1" parent="1" target="hkbijl6ttnB5Sjc4T6V5-137">
          <mxGeometry relative="1" as="geometry">
            <mxPoint x="500" y="720" as="sourcePoint" />
            <Array as="points" />
            <mxPoint x="670" y="720" as="targetPoint" />
          </mxGeometry>
        </mxCell>
        <mxCell id="hkbijl6ttnB5Sjc4T6V5-139" value="DELETE - Payroll details by&amp;nbsp;&lt;div&gt;Payroll_id&lt;/div&gt;" style="html=1;verticalAlign=bottom;endArrow=block;edgeStyle=elbowEdgeStyle;elbow=vertical;curved=0;rounded=0;" edge="1" parent="1" target="hkbijl6ttnB5Sjc4T6V5-136">
          <mxGeometry relative="1" as="geometry">
            <mxPoint x="280" y="710" as="sourcePoint" />
            <Array as="points">
              <mxPoint x="365" y="710" />
              <mxPoint x="400" y="720" />
            </Array>
            <mxPoint x="480" y="710" as="targetPoint" />
          </mxGeometry>
        </mxCell>
        <mxCell id="hkbijl6ttnB5Sjc4T6V5-63" value="Graph is displayed" style="html=1;verticalAlign=bottom;endArrow=block;edgeStyle=elbowEdgeStyle;elbow=vertical;curved=0;rounded=0;" edge="1" parent="1" target="hkbijl6ttnB5Sjc4T6V5-143">
          <mxGeometry relative="1" as="geometry">
            <mxPoint x="500" y="890.17" as="sourcePoint" />
            <Array as="points" />
            <mxPoint x="670" y="889.67" as="targetPoint" />
          </mxGeometry>
        </mxCell>
        <mxCell id="hkbijl6ttnB5Sjc4T6V5-66" value="Graph is displayed" style="html=1;verticalAlign=bottom;endArrow=block;edgeStyle=elbowEdgeStyle;elbow=vertical;curved=0;rounded=0;" edge="1" parent="1" target="hkbijl6ttnB5Sjc4T6V5-149">
          <mxGeometry relative="1" as="geometry">
            <mxPoint x="500" y="980.17" as="sourcePoint" />
            <Array as="points" />
            <mxPoint x="670" y="979.67" as="targetPoint" />
          </mxGeometry>
        </mxCell>
        <mxCell id="hkbijl6ttnB5Sjc4T6V5-161" value="Logout" style="html=1;verticalAlign=bottom;endArrow=block;edgeStyle=elbowEdgeStyle;elbow=vertical;curved=0;rounded=0;" edge="1" parent="1" target="hkbijl6ttnB5Sjc4T6V5-163">
          <mxGeometry relative="1" as="geometry">
            <mxPoint x="265" y="1320" as="sourcePoint" />
            <Array as="points">
              <mxPoint x="180" y="1320" />
            </Array>
            <mxPoint x="100" y="1320" as="targetPoint" />
          </mxGeometry>
        </mxCell>
        <mxCell id="hkbijl6ttnB5Sjc4T6V5-52" value="READ - GET TotalSalary&amp;nbsp;&lt;div&gt;calculated by payroll_id&lt;/div&gt;" style="html=1;verticalAlign=bottom;endArrow=block;edgeStyle=elbowEdgeStyle;elbow=vertical;curved=0;rounded=0;" edge="1" parent="1">
          <mxGeometry relative="1" as="geometry">
            <mxPoint x="280" y="810" as="sourcePoint" />
            <Array as="points" />
            <mxPoint x="492.5" y="810.5" as="targetPoint" />
          </mxGeometry>
        </mxCell>
        <mxCell id="hkbijl6ttnB5Sjc4T6V5-141" value="&amp;nbsp;" style="html=1;points=[];perimeter=orthogonalPerimeter;outlineConnect=0;targetShapes=umlLifeline;portConstraint=eastwest;newEdgeStyle={&quot;edgeStyle&quot;:&quot;elbowEdgeStyle&quot;,&quot;elbow&quot;:&quot;vertical&quot;,&quot;curved&quot;:0,&quot;rounded&quot;:0};" vertex="1" parent="1">
          <mxGeometry x="495" y="810.5" width="10" height="30" as="geometry" />
        </mxCell>
        <mxCell id="hkbijl6ttnB5Sjc4T6V5-140" value="&amp;nbsp;" style="html=1;points=[];perimeter=orthogonalPerimeter;outlineConnect=0;targetShapes=umlLifeline;portConstraint=eastwest;newEdgeStyle={&quot;edgeStyle&quot;:&quot;elbowEdgeStyle&quot;,&quot;elbow&quot;:&quot;vertical&quot;,&quot;curved&quot;:0,&quot;rounded&quot;:0};" vertex="1" parent="1">
          <mxGeometry x="690" y="810.5" width="10" height="20" as="geometry" />
        </mxCell>
        <mxCell id="hkbijl6ttnB5Sjc4T6V5-57" value="TotalSalary for the payroll_id is&lt;div&gt;returned and TotalSalary table&lt;/div&gt;&lt;div&gt;updated&lt;/div&gt;" style="html=1;verticalAlign=bottom;endArrow=block;edgeStyle=elbowEdgeStyle;elbow=vertical;curved=0;rounded=0;" edge="1" parent="1" target="hkbijl6ttnB5Sjc4T6V5-140">
          <mxGeometry relative="1" as="geometry">
            <mxPoint x="505" y="821" as="sourcePoint" />
            <Array as="points" />
            <mxPoint x="675" y="820.5" as="targetPoint" />
          </mxGeometry>
        </mxCell>
        <mxCell id="hkbijl6ttnB5Sjc4T6V5-58" value="Payroll not found" style="html=1;verticalAlign=bottom;endArrow=block;edgeStyle=elbowEdgeStyle;elbow=vertical;curved=0;rounded=0;" edge="1" parent="1">
          <mxGeometry relative="1" as="geometry">
            <mxPoint x="492.5" y="830.5" as="sourcePoint" />
            <Array as="points">
              <mxPoint x="392.5" y="830.5" />
            </Array>
            <mxPoint x="280" y="830.5" as="targetPoint" />
          </mxGeometry>
        </mxCell>
        <mxCell id="hkbijl6ttnB5Sjc4T6V5-67" value="Logout" style="html=1;verticalAlign=bottom;endArrow=block;edgeStyle=elbowEdgeStyle;elbow=vertical;curved=0;rounded=0;" edge="1" parent="1">
          <mxGeometry relative="1" as="geometry">
            <mxPoint x="265" y="990" as="sourcePoint" />
            <Array as="points">
              <mxPoint x="165" y="990" />
            </Array>
            <mxPoint x="95" y="990" as="targetPoint" />
          </mxGeometry>
        </mxCell>
      </root>
    </mxGraphModel>
  </diagram>
</mxfile>
